<?xml version="1.0" encoding="UTF-8"?>
<svg id="Capa_1" data-name="Capa 1" xmlns="http://www.w3.org/2000/svg" viewBox="0 0 242.85 242.85">
  <defs>
    <style>
      .cls-1 {
        fill: #507dd1;
      }

      .cls-2 {
        fill: #3764b8;
      }

      .cls-3 {
        fill: #1e4b9f;
      }
    </style>
  </defs>
  <path class="cls-2" d="M.04,189.23v-14.7c.9-2.08,.59-4.34,.86-6.51,1.97-15.48,6.84-29.97,14.74-43.4,7.39-12.57,16.8-23.37,28.38-32.34,13.4-10.37,28.34-17.32,44.78-21.18,11.55-2.71,23.27-3.03,35.04-2.78-2.47,7.56-2.56,15.36-2.44,23.19,.1,6.79-.03,13.59,.06,20.39,.02,1.56-.44,1.98-1.98,1.96-6.72-.08-13.43-.05-20.15-.03-5.18,.02-8.23,3.08-8.25,8.28-.02,7.11-.02,14.22,0,21.34,.01,5.16,3.11,8.29,8.22,8.31,6.48,.02,12.96,.09,19.44-.04,2.1-.04,2.74,.44,2.74,2.67-.08,29.47-.06,58.95-.06,88.42H53.62c-.66-.9-1.72-.63-2.57-.78-25.48-4.53-44.42-22.73-49.82-47.9-.35-1.64-.2-3.42-1.19-4.9Z"/>
  <path class="cls-1" d="M123.85,68.33c-11.77-.26-23.49,.07-35.04,2.78-16.45,3.86-31.39,10.81-44.78,21.18-11.58,8.96-20.99,19.77-28.38,32.34-7.9,13.43-12.77,27.92-14.74,43.4-.28,2.16,.04,4.42-.86,6.51,0-39.99,0-79.98,0-119.96,.31-1.52,.61-3.03,.93-4.55C6,25.79,20.38,9.98,43.88,2.35c3.2-1.04,6.58-1.18,9.74-2.31H188.28c.79,.88,2.01,.12,2.86,.76,.45,.62,1.15,.8,1.81,1.04,18.81,6.88,27.81,25.73,21,44.51-2.99,8.22-8.56,14.41-16.58,18.2-.03-6.15-.04-12.3-.09-18.46-.04-4.97-3.17-8.09-8.17-8.11-7.57-.03-15.15-.1-22.72,.02-12.4,.21-23,4.78-31.82,13.51-4.85,4.8-8.14,10.58-10.72,16.82Z"/>
  <path class="cls-3" d="M159.44,238.53c-.03-9.24-.07-18.48-.07-27.72-.01-18.88,.03-37.75-.05-56.63,0-1.95,.43-2.5,2.43-2.47,7.03,.14,14.06,.07,21.09,.04,4.48-.02,7.33-2.3,8.22-6.63,1.46-7.11,2.88-14.22,4.25-21.34,.24-1.23,.16-2.51,.23-3.77,.38-.12,.75-.24,1.13-.35,21.92-6.09,36.47-19.93,43.54-41.54,1.14-3.5,1.75-7.17,2.6-10.76v121.86c-.91,1.01-.64,2.35-.89,3.51-5.05,24.17-19.35,40.03-42.78,47.64-3.37,1.1-6.92,1.63-10.39,2.43h-11.85c-5.92-1.02-11.83-2.1-17.47-4.28Z"/>
  <path class="cls-2" d="M242.81,67.37c-.85,3.59-1.46,7.26-2.6,10.76-7.07,21.61-21.63,35.45-43.54,41.54-.38,.11-.75,.23-1.13,.35-1.5-4.51-3.81-6.18-8.59-6.18-8.45,0-16.89-.04-25.34,.03-1.63,.01-2.33-.21-2.3-2.13,.11-9.23,.03-18.47,.06-27.7,.01-5.01,3.12-8.11,8.14-8.13,6.87-.03,13.73,0,20.6,0,6.44,0,9.17-2.74,9.19-9.24,0-.71,.05-1.42,.08-2.13,8.02-3.79,13.59-9.97,16.58-18.2,6.82-18.78-2.19-37.63-21-44.51-.66-.24-1.37-.42-1.81-1.04,24.11,2.95,45.05,22.56,50.28,46.99,.45,2.1,.37,4.33,1.38,6.31v13.28Z"/>
  <path class="cls-2" d="M159.44,238.53c5.64,2.18,11.54,3.27,17.47,4.28h-17.54c.03-1.43,.05-2.85,.08-4.28Z"/>
</svg>