<?xml version="1.0" encoding="UTF-8"?>
<svg id="Capa_1" data-name="Capa 1" xmlns="http://www.w3.org/2000/svg" xmlns:xlink="http://www.w3.org/1999/xlink" viewBox="0 0 242.85 242.85">
  <defs>
    <style>
      .cls-1 {
        fill: #fcfdfd;
      }

      .cls-2 {
        fill: #fdfefe;
      }

      .cls-3 {
        fill: #0b66c3;
      }

      .cls-4 {
        fill: #fdfdfe;
      }

      .cls-5 {
        clip-path: url(#clippath);
      }

      .cls-6 {
        fill: #0b4c8f;
      }

      .cls-7 {
        fill: #0b66c2;
      }

      .cls-8 {
        fill: #0a4c8f;
      }
    </style>
    <clipPath id="clippath">
      <rect class="cls-3" width="242.85" height="242.85" rx="59.4" ry="59.4"/>
    </clipPath>
  </defs>
  <rect class="cls-3" width="242.85" height="242.85" rx="59.4" ry="59.4"/>
  <g class="cls-5">
    <rect class="cls-8" x="114.4" y="165.8" width="177.6" height="121.2"/>
    <g>
      <path class="cls-7" d="M97.06,.05h48.27c.3,.71,.94,.44,1.44,.45,17.64,.63,35.22,1.93,52.78,3.76,19.68,2.05,36.5,18.85,38.58,38.61,2.08,19.71,3.41,39.46,3.95,59.28,.52,19.11,.31,38.2-.79,57.28-1.13-.34-1.77-1.29-2.54-2.06-15.62-15.63-31.22-31.27-46.84-46.9-.75-.75-1.34-1.82-2.64-1.8l.06,.02c-.04-.48-.33-.78-.73-1-1.51-1.81-2.9-3.72-4.65-5.32-6-5.46-13.25-7.66-21.14-8.12-11.17-.64-21.69,.93-30.11,9.28-1-1.31-2.09-2.54-3.49-3.45-.58-2.51-1.98-4.17-4.66-4.5-.2-.72-.74-1.19-1.24-1.69-12.3-12.32-24.59-24.65-36.91-36.95-.46-.46-.78-1.27-1.7-1.01-.46-.63-.92-1.25-1.37-1.89-5.48-7.62-15.66-10.52-24.42-6.96-8.83,3.59-14.07,12.92-12.6,22.29,.96,6.13,4.22,10.73,9.11,14.32,.24,.39,.55,.68,1.04,.72v-.07c-.09,1.11,.8,1.64,1.42,2.3,2.78,2.97,5.92,5.59,8.47,8.78-3.3,.06-6.6,.1-9.91,.19-3.92,.11-5.76,1.97-5.76,5.9-.01,29.92,0,59.84-.03,89.76,0,2.66,.94,4.57,3.34,5.72,.34,1.12,1.27,1.78,2.04,2.55,13.51,13.55,27.03,27.09,40.54,40.65,.76,.76,1.76,1.38,1.91,2.61h-1.89c-.3-.71-.93-.45-1.43-.46-17.49-.63-34.92-1.95-52.32-3.75-19.68-2.04-36.52-18.91-38.57-38.63-1.82-17.44-3.11-34.91-3.74-52.43-.02-.5,.23-1.14-.46-1.44v-49.78c.71-.29,.45-.93,.47-1.43,.66-17.44,1.96-34.83,3.76-52.19C6.26,23.47,22.93,6.45,42.11,4.35,59.82,2.4,77.57,1.11,95.38,.5c.57-.02,1.29,.31,1.68-.45Z"/>
      <path class="cls-6" d="M66.34,95.43c-2.55-3.19-5.69-5.81-8.47-8.78-.63-.67-1.51-1.19-1.43-2.3,.65,.28,1.29,.57,1.94,.85,10.14,4.45,22.08,.07,26.86-9.92,3.12-6.52,2.61-12.98-.54-19.35,.92-.27,1.24,.55,1.7,1.01,12.31,12.31,24.61,24.63,36.91,36.95,.5,.5,1.04,.98,1.24,1.69-7.25,.03-14.51,.05-21.76,.09-4.11,.02-5.71,1.63-5.71,5.76,0,30.02,0,60.05,0,90.07,0,4.07,1.69,5.77,5.73,5.78,6.55,.01,13.09,0,19.64,0,5.16,0,6.57-1.41,6.57-6.62,0-15.25-.03-30.5,.02-45.75,.02-5.7,1.27-11.13,4.38-15.99,3.92-6.1,9.71-7.98,16.59-7.02,6.21,.86,9.95,4.67,11.9,10.46,1.69,5.02,1.78,10.23,1.77,15.45-.02,14.62-.04,29.23-.03,43.85,0,3.97,1.68,5.6,5.63,5.61,7.18,.01,14.35,.02,21.53,0,3.89,0,5.62-1.74,5.62-5.66,0-16.83,.1-33.66-.07-50.49-.12-11.27-1.37-22.38-7.08-32.47,1.3-.02,1.89,1.05,2.64,1.8,15.62,15.63,31.22,31.27,46.84,46.9,.77,.77,1.41,1.72,2.54,2.06,0,1.02,.09,2.05,.02,3.07-.89,12.59-1.52,25.2-3.23,37.71-2.26,16.45-11.16,28.05-26.12,35.09-7.68,3.61-16,3.82-24.18,4.57-13.41,1.23-26.84,2.19-40.31,2.48-.43,0-.98-.17-1.18,.47h-47.79c-.15-1.23-1.15-1.84-1.91-2.61-13.51-13.56-27.03-27.1-40.54-40.65-.77-.77-1.7-1.43-2.04-2.55,.94,.1,1.87,.28,2.81,.28,6.54,.02,13.08,.02,19.62,0,4.33,0,6.25-1.84,6.25-6.16,.02-29.76,.02-59.52,0-89.28,0-4.37-1.84-6.17-6.17-6.24-3.38-.06-6.76-.12-10.14-.18Z"/>
      <path class="cls-2" d="M189.26,108.66c5.71,10.09,6.97,21.19,7.08,32.47,.17,16.83,.08,33.66,.07,50.49,0,3.92-1.73,5.65-5.62,5.66-7.18,.02-14.35,.02-21.53,0-3.95,0-5.63-1.64-5.63-5.61-.01-14.62,0-29.23,.03-43.85,0-5.22-.08-10.43-1.77-15.45-1.95-5.79-5.69-9.6-11.9-10.46-6.88-.96-12.67,.92-16.59,7.02-3.12,4.85-4.37,10.28-4.38,15.99-.05,15.25-.01,30.5-.02,45.75,0,5.21-1.41,6.62-6.57,6.62-6.55,0-13.09,.01-19.64,0-4.04,0-5.73-1.71-5.73-5.78,0-30.02,0-60.05,0-90.07,0-4.13,1.6-5.74,5.71-5.76,7.25-.04,14.51-.06,21.76-.09,2.68,.33,4.08,1.98,4.66,4.5,0,2.48,0,4.96,0,7.89,1.36-1.73,2.42-3.09,3.49-4.44,8.42-8.35,18.94-9.93,30.11-9.28,7.89,.45,15.14,2.66,21.14,8.12,1.76,1.6,3.15,3.51,4.65,5.32,.24,.33,.49,.67,.73,1l-.06-.02Z"/>
      <path class="cls-1" d="M66.34,95.43c3.38,.06,6.76,.12,10.14,.18,4.34,.07,6.17,1.87,6.17,6.24,.02,29.76,.02,59.52,0,89.28,0,4.32-1.92,6.15-6.25,6.16-6.54,.01-13.08,.01-19.62,0-.94,0-1.87-.18-2.81-.28-2.4-1.16-3.34-3.06-3.34-5.72,.04-29.92,.02-59.84,.03-89.76,0-3.93,1.84-5.79,5.76-5.9,3.3-.09,6.6-.13,9.91-.19Z"/>
      <path class="cls-4" d="M84.69,55.93c3.14,6.37,3.65,12.83,.54,19.35-4.78,9.99-16.71,14.37-26.86,9.92-.65-.28-1.29-.57-1.94-.85,0,0,.01,.07,.01,.07-.35-.24-.69-.48-1.04-.72-4.9-3.58-8.16-8.19-9.11-14.32-1.46-9.37,3.77-18.7,12.6-22.29,8.76-3.56,18.94-.66,24.42,6.96,.45,.63,.91,1.26,1.37,1.89Z"/>
      <path class="cls-6" d="M132.68,103.53c-1.06,1.35-2.13,2.71-3.49,4.44,0-2.92,0-5.41,0-7.89,1.4,.91,2.49,2.14,3.49,3.45Z"/>
      <path class="cls-6" d="M55.41,83.69c.35,.24,.69,.48,1.04,.72-.49-.04-.8-.33-1.04-.72Z"/>
      <path class="cls-6" d="M189.32,108.68c-.24-.33-.49-.67-.73-1,.4,.21,.69,.52,.73,1Z"/>
    </g>
  </g>
</svg>